<svg id="Layer_1" data-name="Layer 1" xmlns="http://www.w3.org/2000/svg" viewBox="0 0 1000.18 975.49"><defs><style>.cls-1,.cls-2{fill:#fff;}.cls-1{fill-rule:evenodd;}</style></defs><path class="cls-1" d="M499.91,11.86C223.75,11.86-.18,235.74-.18,512c0,221,143.29,408.4,342,474.53,25,4.63,34.17-10.85,34.17-24.06,0-11.92-.46-51.32-.68-93.1-139.12,30.25-168.48-59-168.48-59-22.75-57.8-55.53-73.17-55.53-73.17-45.37-31,3.42-30.4,3.42-30.4,50.22,3.52,76.66,51.54,76.66,51.54,44.6,76.45,117,54.34,145.53,41.57,4.49-32.32,17.45-54.39,31.75-66.88C297.57,720.33,180.8,677.45,180.8,485.83c0-54.6,19.54-99.21,51.53-134.24-5.19-12.6-22.31-63.46,4.85-132.34,0,0,42-13.44,137.56,51.27,39.89-11.09,82.67-16.64,125.17-16.84,42.5.2,85.31,5.75,125.28,16.84,95.45-64.71,137.38-51.27,137.38-51.27,27.23,68.88,10.11,119.74,4.91,132.34,32.07,35,51.47,79.64,51.47,134.24,0,192.08-117,234.36-228.35,246.75,17.94,15.52,33.92,45.95,33.92,92.6,0,66.92-.58,120.77-.58,137.24,0,13.31,9,28.91,34.35,24C856.89,920.22,1000,732.83,1000,512,1000,235.74,776.1,11.86,499.91,11.86Z" transform="translate(0.18 -11.86)"/><path class="cls-2" d="M189.23,729.88c-1.1,2.49-5,3.23-8.57,1.52s-5.66-5-4.49-7.51,5-3.27,8.61-1.56,5.7,5,4.45,7.55Zm-6.15-4.57" transform="translate(0.18 -11.86)"/><path class="cls-2" d="M209.49,752.47c-2.39,2.21-7.05,1.18-10.22-2.31s-3.88-8.15-1.46-10.39,7-1.18,10.25,2.31,3.92,8.15,1.43,10.39Zm-4.77-5.12" transform="translate(0.18 -11.86)"/><path class="cls-2" d="M229.21,781.27c-3.07,2.13-8.08.14-11.18-4.31s-3.07-9.79.07-11.92,8-.21,11.18,4.2,3.05,9.85-.07,12Zm0,0" transform="translate(0.18 -11.86)"/><path class="cls-2" d="M256.22,809.1c-2.75,3-8.58,2.21-12.85-1.92s-5.59-9.75-2.85-12.78,8.65-2.17,12.95,1.92,5.67,9.78,2.75,12.78Zm0,0" transform="translate(0.18 -11.86)"/><path class="cls-2" d="M293.48,825.26c-1.21,3.91-6.83,5.69-12.49,4s-9.36-6.3-8.22-10.25,6.83-5.8,12.53-4,9.36,6.26,8.18,10.25Zm0,0" transform="translate(0.18 -11.86)"/><path class="cls-2" d="M334.41,828.25c.14,4.12-4.66,7.54-10.61,7.62s-10.82-3.21-10.88-7.27,4.69-7.54,10.67-7.65,10.82,3.21,10.82,7.3Zm0,0" transform="translate(0.18 -11.86)"/><path class="cls-2" d="M372.49,821.77c.72,4-3.42,8.15-9.32,9.25s-11.18-1.42-11.92-5.41,3.49-8.26,9.28-9.32,11.21,1.39,12,5.48Zm0,0" transform="translate(0.18 -11.86)"/></svg>